<svg xmlns="http://www.w3.org/2000/svg" viewBox="0 0 32 32" fill="none">
  <rect width="32" height="32" rx="8" fill="#f0f8fc"/>
  <path d="M8 16c0-3 2.5-6 6-6 2 0 3.5 1 4.5 2.5C19.5 11 21 10 23 10c3.5 0 6 3 6 6 0 5.5-6.5 10-13 14C9.5 26 2 21.5 2 16c0-3 2.5-6 6-6 2 0 3.5 1 4.5 2.5C13.5 11 15 10 17 10c-2.5 0-4.5 1.5-5.5 3.5C10.5 11.5 9 10 7 10 4.5 10 2 12.5 2 16z" fill="url(#g)"/>
  <defs>
    <linearGradient id="g" x1="2" y1="10" x2="29" y2="30" gradientUnits="userSpaceOnUse">
      <stop stop-color="#3d8ba8"/>
      <stop offset="1" stop-color="#4a9d8f"/>
    </linearGradient>
  </defs>
</svg>
